<svg xmlns="http://www.w3.org/2000/svg" width="47.029" height="47.8" viewBox="0 0 47.029 47.8">
  <g id="Touch-ID_1_" transform="translate(-9341.602 -13896.389)">
    <path id="Shape_51_" d="M9344.692,13909.6a23.07,23.07,0,0,0-2.075,15.184" transform="translate(0 0.508)" fill="none" stroke="blue" stroke-width="1"/>
    <path id="Shape_50_" d="M9375.061,13899.292a22.613,22.613,0,0,0-14.841-1.872,23.459,23.459,0,0,0-14.22,9.152" transform="translate(0.147)" fill="none" stroke="blue" stroke-width="1"/>
    <path id="Shape_49_" d="M9386.745,13916.356a23.4,23.4,0,0,0-9.444-14.457" transform="translate(1.333 0.2)" fill="none" stroke="blue" stroke-width="1"/>
    <path id="Shape_48_" d="M9386.3,13920.6a20.879,20.879,0,0,0,0-5.1" transform="translate(1.674 0.743)" fill="none" stroke="blue" stroke-width="1"/>
    <path id="Shape_47_" d="M9342.6,13924.2a4.392,4.392,0,0,0,.208,1.144" transform="translate(0.018 1.092)" fill="none" stroke="blue" stroke-width="1"/>
    <path id="Shape_46_" d="M9358.7,13941.968a26.392,26.392,0,0,0,6.02-22.568" transform="translate(0.628 0.9)" fill="none" stroke="blue" stroke-width="1"/>
    <path id="Shape_45_" d="M9360.885,13933.1a23.015,23.015,0,0,1-5.086,7.8" transform="translate(0.519 1.448)" fill="none" stroke="blue" stroke-width="1"/>
    <path id="Shape_44_" d="M9361.806,13942.6a28.944,28.944,0,0,0,5.605-23.712h0a2.911,2.911,0,1,0-5.709,1.144h0a24.218,24.218,0,0,1,0,9.463" transform="translate(0.741 0.786)" fill="none" stroke="blue" stroke-width="1"/>
    <path id="Shape_43_" d="M9359.23,13922.3a20.279,20.279,0,0,1-6.33,17.68" transform="translate(0.408 1.016)" fill="none" stroke="blue" stroke-width="1"/>
    <path id="Shape_42_" d="M9370.84,13925.521a31.893,31.893,0,0,0-.622-6.24h0a5.819,5.819,0,0,0-11.417,0" transform="translate(0.632 0.706)" fill="none" stroke="blue" stroke-width="1"/>
    <path id="Shape_41_" d="M9365.6,13942.656a32.645,32.645,0,0,0,5.4-14.456" transform="translate(0.89 1.251)" fill="none" stroke="blue" stroke-width="1"/>
    <path id="Shape_40_" d="M9365.846,13911.6a9.236,9.236,0,0,0-2.387.1,8.748,8.748,0,0,0-6.851,10.3h0a17.8,17.8,0,0,1-5.708,16.744" transform="translate(0.332 0.586)" fill="none" stroke="blue" stroke-width="1"/>
    <path id="Shape_39_" d="M9368.708,13943.077a35.218,35.218,0,0,0,4.151-24.648h0a8.835,8.835,0,0,0-4.359-5.928" transform="translate(0.999 0.623)" fill="none" stroke="blue" stroke-width="1"/>
    <path id="Shape_38_" d="M9353.358,13930.1a14.142,14.142,0,0,1-4.359,6.031" transform="translate(0.261 1.327)" fill="none" stroke="blue" stroke-width="1"/>
    <path id="Shape_37_" d="M9376.149,13931.685a37.63,37.63,0,0,0-.208-13.623h0a11.644,11.644,0,1,0-22.834,4.576h0a16.191,16.191,0,0,1,.208,4.472" transform="translate(0.408 0.471)" fill="none" stroke="blue" stroke-width="1"/>
    <path id="Shape_36_" d="M9372.4,13940.86a40.833,40.833,0,0,0,2.492-6.761" transform="translate(1.148 1.488)" fill="none" stroke="blue" stroke-width="1"/>
    <path id="Shape_35_" d="M9376.3,13911.6a13.59,13.59,0,0,1,2.491,5.721h0a40.389,40.389,0,0,1-1.868,22.568" transform="translate(1.295 0.588)" fill="none" stroke="blue" stroke-width="1"/>
    <path id="Shape_34_" d="M9358.7,13907.052a16.691,16.691,0,0,1,3.217-1.04,14.418,14.418,0,0,1,12.144,3.017" transform="translate(0.628 0.352)" fill="none" stroke="blue" stroke-width="1"/>
    <path id="Shape_33_" d="M9347,13934.288a11.721,11.721,0,0,0,4.151-11.44h0a14.623,14.623,0,0,1,5.086-14.248" transform="translate(0.185 0.468)" fill="none" stroke="blue" stroke-width="1"/>
    <path id="Shape_32_" d="M9347.694,13920.4a12.913,12.913,0,0,0,.312,2.809h0a8.982,8.982,0,0,1-2.906,8.424" transform="translate(0.113 0.94)" fill="none" stroke="blue" stroke-width="1"/>
    <path id="Shape_31_" d="M9382.666,13919.129a21.416,21.416,0,0,0-.416-2.288h0a17.41,17.41,0,0,0-34.251.416" transform="translate(0.223 0.234)" fill="none" stroke="blue" stroke-width="1"/>
    <path id="Shape_30_" d="M9380.2,13936.236a44.562,44.562,0,0,0,1.35-13.937" transform="translate(1.443 1.016)" fill="none" stroke="blue" stroke-width="1"/>
    <path id="Shape_29_" d="M9368.279,13900.107a21.105,21.105,0,0,0-6.746.208,20.316,20.316,0,0,0-15.88,24.023h0a5.621,5.621,0,0,1-1.453,5.1" transform="translate(0.078 0.12)" fill="none" stroke="blue" stroke-width="1"/>
    <path id="Shape_28_" d="M9384.826,13931.269a45.688,45.688,0,0,0-.622-14.977h0a20.442,20.442,0,0,0-13.8-15.392" transform="translate(1.071 0.159)" fill="none" stroke="blue" stroke-width="1"/>
  </g>
</svg>
