<svg xmlns="http://www.w3.org/2000/svg" width="41.334" height="33.575" viewBox="0 0 41.334 33.575">
  <g id="Group_34" data-name="Group 34" transform="translate(-283.402 -539.712)">
    <g id="Path_1" data-name="Path 1" transform="translate(294.264 539.712)" fill="#fff">
      <path d="M 13.68507480621338 32.82513809204102 C 10.10866546630859 32.82513809204102 4.955145359039307 30.13262939453125 -1.218334794044495 25.0386791229248 C -5.413985252380371 21.57669639587402 -8.899901390075684 17.95513725280762 -9.928162574768066 16.76905822753906 C -8.95241641998291 15.61362934112549 -5.534048080444336 12.02670860290527 -1.178794741630554 8.458728790283203 C 4.977065086364746 3.415639162063599 10.11690521240234 0.7499990463256836 13.68507480621338 0.7499990463256836 C 17.96886444091797 0.7499990463256836 21.99624443054199 2.418199062347412 25.02534484863281 5.447288990020752 C 28.05443572998047 8.476388931274414 29.72263526916504 12.50377941131592 29.72263526916504 16.78756904602051 C 29.72263526916504 21.07135963439941 28.05443572998047 25.0987491607666 25.02534484863281 28.12784957885742 C 21.99624443054199 31.15693855285645 17.96886444091797 32.82513809204102 13.68507480621338 32.82513809204102 Z" stroke="none"/>
      <path d="M 13.6850757598877 1.5 C 11.89535522460938 1.5 9.635615348815918 2.241338729858398 6.968605041503906 3.703439712524414 C 4.685074806213379 4.95530891418457 2.152706146240234 6.710458755493164 -0.5581645965576172 8.920129776000977 C -4.444868087768555 12.0882511138916 -7.599922180175781 15.29255485534668 -8.923967361450195 16.75952911376953 C -7.593490600585938 18.20876693725586 -4.476114273071289 21.39167785644531 -0.6151447296142578 24.56380844116211 C 2.106954574584961 26.80024909973145 4.645885467529297 28.575439453125 6.93111515045166 29.84004974365234 C 9.61115550994873 31.32314872741699 11.88351535797119 32.07513809204102 13.6850757598877 32.07513809204102 C 17.76852607727051 32.07513809204102 21.60757446289063 30.48495864868164 24.49501419067383 27.59751892089844 C 27.38245582580566 24.71006774902344 28.97263526916504 20.87102890014648 28.97263526916504 16.78756904602051 C 28.97263526916504 12.70410919189453 27.38245582580566 8.865068435668945 24.49501419067383 5.977619171142578 C 21.60757446289063 3.090179443359375 17.76852607727051 1.5 13.6850757598877 1.5 M 13.6850757598877 0 C 22.95658493041992 0 30.47263526916504 7.516048431396484 30.47263526916504 16.78756904602051 C 30.47263526916504 26.05908966064453 22.95658493041992 33.57513809204102 13.6850757598877 33.57513809204102 C 4.413555145263672 33.57513809204102 -10.78609466552734 17.19497871398926 -10.86143493652344 16.78756904602051 C -10.9367847442627 16.38015937805176 4.413555145263672 0 13.6850757598877 0 Z" stroke="none" fill="blue"/>
    </g>
    <line id="Line_1" data-name="Line 1" x2="13.573" y2="13.573" transform="translate(301.52 550.071)" fill="none" stroke="blue" stroke-width="1.5"/>
    <line id="Line_2" data-name="Line 2" x1="13.573" y2="13.573" transform="translate(301.52 550.071)" fill="none" stroke="blue" stroke-width="1.5"/>
  </g>
</svg>
