<?xml version="1.0" encoding="utf-8"?><svg xmlns="http://www.w3.org/2000/svg" xmlns:xlink="http://www.w3.org/1999/xlink"><symbol viewBox="0 0 512 512" id="Spb" xmlns="http://www.w3.org/2000/svg"><path d="M503.551 448.271h-11.494V247.192a8.449 8.449 0 0 0-8.449-8.449h-14.043c-3.776-14.901-17.301-25.959-33.359-25.959s-29.584 11.058-33.359 25.959h-.315c-3.776-14.901-17.297-25.959-33.356-25.959-15.908 0-29.261 10.853-33.183 25.543v-49.233c0-34.317-22.028-63.573-52.68-74.411l-18.06-46.393a8.45 8.45 0 0 0-15.748 0l-17.968 46.16c-31.009 10.642-53.367 40.071-53.367 74.643v49.233c-3.922-14.689-17.275-25.543-33.183-25.543-16.059 0-29.58 11.058-33.356 25.959h-.315c-3.776-14.901-17.301-25.959-33.359-25.959s-29.582 11.059-33.357 25.96H30.556a8.449 8.449 0 0 0-8.449 8.449v201.079H8.449A8.449 8.449 0 0 0 0 456.72a8.449 8.449 0 0 0 8.449 8.449h495.102A8.449 8.449 0 0 0 512 456.72a8.449 8.449 0 0 0-8.449-8.449zM369.174 229.682c6.594 0 12.347 3.664 15.333 9.061H353.84c2.987-5.398 8.741-9.061 15.334-9.061zm-50.655-49.038h-20.585c-.9-17.799-4.634-33.493-10.38-45.53 16.48 9.34 28.292 25.995 30.965 45.53zm.512 16.898v41.201H303.27v-15.209c0-4.666-3.782-8.449-8.449-8.449s-8.449 3.783-8.449 8.449v15.209h-20.903v-41.201h53.562zM257.378 94.648l6.159 15.82a79.202 79.202 0 0 0-6.455-.286c-1.967 0-3.911.097-5.842.239l6.138-15.773zm-.297 32.433c9.328 0 22.053 20.168 23.926 53.563h-47.851c1.872-33.394 14.597-53.563 23.925-53.563zm-30.474 8.032c-5.745 12.037-9.479 27.732-10.38 45.53h-20.585c2.674-19.534 14.486-36.189 30.965-45.53zm-31.476 62.429h53.44v41.201H227.79v-15.209a8.449 8.449 0 0 0-8.449-8.449 8.449 8.449 0 0 0-8.449 8.449v15.209h-15.761v-41.201zm-50.143 32.14c6.594 0 12.347 3.664 15.333 9.061h-30.666c2.986-5.398 8.74-9.061 15.333-9.061zm-105.983 77.4h87.394v112.729H90.542v-42.823c0-12.837-10.444-23.283-23.284-23.283-12.838 0-23.283 10.444-23.283 23.283v42.823h-4.97V307.082zm34.639 69.906v42.823h-12.77v-42.823c0-3.521 2.864-6.384 6.384-6.384s6.386 2.863 6.386 6.384zm17.491 71.283h-52.13v-11.562h56.212l-4.082 11.562zm17.922 0l4.083-11.562h284.512l4.083 11.562H109.057zm34.241-28.46V307.082h6.759v112.729h-6.759zm23.658 0V307.082h33.046v112.729h-33.046zm49.944 0V307.082h6.759v112.729H216.9zm8.487-129.627l31.694-14.12 31.694 14.12h-63.388zm48.217 16.898v112.729h-33.047V307.082h33.047zm16.899 112.729V307.082h6.759v112.729h-6.759zm23.658 0V307.082h33.046v112.729h-33.046zm49.944 0V307.082h6.759v112.729h-6.759zm111.052 28.46h-55.503l-4.083-11.562h59.585v11.562zm-42.517-28.46v-42.823c0-3.521 2.864-6.384 6.384-6.384s6.385 2.864 6.385 6.384v42.823H432.64zm42.517 0h-12.849v-42.823c0-12.838-10.444-23.283-23.284-23.283-12.838 0-23.283 10.444-23.283 23.283v42.823h-27.979V307.082h87.394v112.729zm0-129.627H330.299l-69.779-31.088a8.458 8.458 0 0 0-6.877 0l-69.779 31.088H39.005v-34.543h12.993a8.449 8.449 0 0 0 8.449-8.449c0-9.655 7.856-17.51 17.51-17.51s17.51 7.856 17.51 17.51a8.449 8.449 0 0 0 8.449 8.449h306.329a8.449 8.449 0 0 0 8.449-8.449c0-9.655 7.855-17.51 17.51-17.51 9.655 0 17.51 7.856 17.51 17.51a8.449 8.449 0 0 0 8.449 8.449h12.993v34.543zm28.394 190.193H8.449A8.449 8.449 0 0 0 0 488.826a8.449 8.449 0 0 0 8.449 8.449h495.102a8.45 8.45 0 0 0 0-16.898z"/><path d="M122.05 14.724c-35.873 0-65.057 29.184-65.057 65.057s29.184 65.056 65.057 65.056c35.872 0 65.056-29.184 65.056-65.057-.001-35.873-29.184-65.056-65.056-65.056zm0 113.215c-26.554 0-48.158-21.604-48.158-48.16 0-26.555 21.604-48.157 48.158-48.157s48.157 21.603 48.157 48.158-21.603 48.159-48.157 48.159zm352.769-26.16h-41.135a25.665 25.665 0 0 0 1.573-8.872c0-14.209-11.561-25.769-25.769-25.769h-59.711c-14.208 0-25.769 11.56-25.769 25.769.001 14.209 11.562 25.77 25.77 25.77h.874a25.668 25.668 0 0 0-1.573 8.871c0 14.209 11.561 25.769 25.77 25.769h99.97c14.209 0 25.77-11.56 25.77-25.769s-11.561-25.769-25.77-25.769zm0 34.64h-99.97c-4.892 0-8.872-3.979-8.872-8.871s3.98-8.871 8.872-8.871a8.449 8.449 0 0 0 8.449-8.449 8.449 8.449 0 0 0-8.449-8.449h-25.072c-4.892 0-8.871-3.98-8.871-8.872s3.98-8.871 8.871-8.871h59.711c4.892 0 8.871 3.979 8.871 8.871s-3.979 8.872-8.871 8.872a8.449 8.449 0 0 0-8.449 8.449 8.449 8.449 0 0 0 8.449 8.449h65.331c4.893 0 8.872 3.979 8.872 8.871s-3.98 8.871-8.872 8.871z"/><circle cx="436.769" cy="245.411" r="8.449"/><circle cx="77.958" cy="245.411" r="8.449"/></symbol></svg>